<?xml version="1.0" standalone="no"?>
<!DOCTYPE svg PUBLIC "-//W3C//DTD SVG 20010904//EN"
 "http://www.w3.org/TR/2001/REC-SVG-20010904/DTD/svg10.dtd">
<svg version="1.0" xmlns="http://www.w3.org/2000/svg"
 width="263.000000pt" height="263.000000pt" viewBox="0 0 263.000000 263.000000"
 preserveAspectRatio="xMidYMid meet">
<metadata>
Created by potrace 1.11, written by Peter Selinger 2001-2013
</metadata>
<g transform="translate(0.000000,263.000000) scale(0.100000,-0.100000)"
fill="#000000" stroke="none">
<path d="M299 2626 c-1 -2 -7 -560 -14 -1231 -11 -1129 -12 -1179 -20 -1215
-20 -97 -105 -93 -139 5 -16 47 -16 141 -1 237 l8 48 -54 -19 c-53 -18 -54
-18 -66 -72 -6 -29 -11 -83 -9 -120 1 -54 8 -76 31 -115 95 -152 336 -185 447
-61 77 85 96 190 98 537 1 146 3 425 5 620 3 383 8 1358 6 1376 -1 7 -48 11
-146 11 -80 0 -145 0 -146 -1z"/>
<path d="M840 1381 l0 -1249 298 2 c324 3 323 2 409 65 61 44 125 165 138 259
3 20 8 48 11 62 3 14 7 79 9 145 8 332 -87 669 -209 744 l-36 23 25 20 c58 45
113 179 149 361 34 170 39 211 41 382 2 239 -33 333 -145 391 -71 36 -135 43
-416 44 l-274 1 0 -1250z m466 1135 c49 -33 57 -70 70 -326 17 -361 -3 -552
-71 -659 -31 -49 -61 -66 -115 -66 l-45 0 -2 525 c-1 289 0 530 2 536 5 18
130 10 161 -10z m-37 -1172 c107 -90 144 -339 117 -793 -9 -159 -30 -207 -100
-236 -34 -14 -136 -22 -152 -12 -5 3 -9 47 -8 99 13 646 17 862 16 911 l-1 57
49 0 c37 0 55 -6 79 -26z"/>
<path d="M1871 2610 c-8 -17 -8 -2476 0 -2484 7 -7 203 -36 246 -36 10 0 13
125 13 624 0 490 3 625 13 628 6 3 55 4 107 3 l95 -1 3 -646 2 -645 88 -16
c48 -9 108 -19 134 -22 l47 -7 -1 1306 -1 1306 -43 1 c-24 0 -73 1 -109 1 -36
0 -76 -1 -90 -1 l-25 -1 0 -491 c0 -271 -1 -494 -4 -496 -4 -4 -107 -7 -183
-4 l-33 1 0 495 c0 272 -3 495 -7 496 -5 0 -61 1 -126 2 -97 2 -120 -1 -126
-13z"/>
</g>
</svg>
